Coordinates
version=1
nRows=16
nColumns=36
inDegrees=yes

Units are S.I. units (second, meters, Newtons, ...)
If the header above contains a line with 'inDegrees', this indicates whether rotational values are in degrees (yes) or radians (no).

endheader
time	pelvis_tilt	pelvis_list	pelvis_rotation	pelvis_tx	pelvis_ty	pelvis_tz	hip_flexion_r	hip_adduction_r	hip_rotation_r	knee_angle_r	knee_angle_r_beta	ankle_angle_r	subtalar_angle_r	mtp_angle_r	hip_flexion_l	hip_adduction_l	hip_rotation_l	knee_angle_l	knee_angle_l_beta	ankle_angle_l	subtalar_angle_l	mtp_angle_l	lumbar_extension	lumbar_bending	lumbar_rotation	arm_flex_r	arm_add_r	arm_rot_r	elbow_flex_r	pro_sup_r	arm_flex_l	arm_add_l	arm_rot_l	elbow_flex_l	pro_sup_l
      2.96610170	    -17.80475608	      1.95902517	      0.20605236	      0.16669693	      0.80653453	     -0.10844640	     74.00346156	    -10.06564993	      2.67079714	     79.86292495	      1.39387099	     16.06779813	    -24.54533802	     -7.49999987	     71.11171882	     -0.91971197	      1.30107353	     82.03358311	      1.43175612	     19.90263339	    -12.77062617	     -7.49999987	    -51.13115054	      1.81050046	      0.19970803	    189.98477264	   -168.22043430	    172.84233688	     97.08143624	    100.84526320	     18.78877322	    -12.95222195	     -7.64258960	    121.39338458	     93.86291050
      2.98305090	    -17.89837382	      2.22886773	      0.39543699	      0.18579942	      0.81068614	     -0.12870183	     72.34737212	    -11.25612150	      3.24477060	     78.61142902	      1.37202827	     16.03169400	    -24.28465493	     -7.49999987	     69.88318460	      0.64778270	      0.96734532	     81.50827884	      1.42258783	     19.67959023	    -13.90424385	     -7.49999987	    -52.32257257	      2.87205071	      0.02951040	    188.41510329	   -167.36809206	    170.20649938	     90.84999433	     98.44636367	     16.15370853	    -10.32718752	     -8.88219516	    114.57031694	     92.29709498
      3.00000000	    -17.89511589	      2.19108686	      0.37132708	      0.18383853	      0.81481584	     -0.11979396	     70.90062070	    -11.60852355	      3.35215336	     77.46424766	      1.35200617	     15.95042079	    -24.60253414	     -7.49999987	     68.46286441	      1.32011588	      1.18056038	     80.37106141	      1.40273964	     19.70506795	    -14.70020322	     -7.49999987	    -53.15341081	      3.57191528	      0.10611377	    187.68480685	   -166.95433952	    168.36434585	     84.72963070	     96.35637070	     15.06084721	     -9.38545580	     -9.99433386	    106.01229148	     91.26194741
      3.01694910	    -17.21870044	      1.83682470	      0.34457355	      0.18728998	      0.81249087	     -0.10442492	     69.29701098	    -11.22938803	      2.90901647	     77.44804949	      1.35172346	     17.25563582	    -24.30644875	     -7.49999987	     67.10359004	      0.64248429	      1.53055235	     80.36922150	      1.40270753	     20.46482546	    -13.68306071	     -7.49999987	    -54.52527254	      3.98849820	      0.03008074	    186.51209859	   -167.35609202	    167.99302019	     80.62021472	     94.75804694	     13.92130486	     -9.90058551	    -11.67802613	     97.80626589	     90.07045392
      3.03389830	    -16.49174555	      1.57330650	      0.20998829	      0.20767318	      0.81500440	     -0.10302840	     67.28359896	    -10.57257762	      2.50558197	     77.54021355	      1.35333203	     18.26064947	    -24.86817196	     -7.49999987	     65.49685081	     -0.36341185	      1.66670062	     80.62239677	      1.40712627	     21.63050585	    -12.30136288	     -7.49999987	    -54.45076742	      4.05362286	      0.35404705	    184.95766147	   -167.77265347	    166.51812588	     71.82229338	     94.82240826	     14.31416270	    -10.69561577	     -9.26050281	     84.93073375	     91.08229644
      3.05084750	    -15.62996696	      1.32239540	      0.09730415	      0.20962054	      0.81670605	     -0.09811784	     65.61725363	     -9.80226011	      2.02366441	     77.85906799	      1.35889709	     19.16590355	    -25.34746815	     -7.49999987	     64.08712566	     -1.47324916	      1.71631729	     81.00333163	      1.41377484	     22.46253620	    -10.77523163	     -7.49999987	    -54.37112918	      3.90116435	     -0.24531122	    182.49164287	   -168.18754872	    166.15983481	     68.47242784	     94.79176220	     14.44737877	    -12.73658141	     -7.18525221	     74.90708578	     90.86684178
      3.06779660	    -14.56869415	      0.90621053	      0.00062411	      0.20771942	      0.83344944	     -0.09044104	     63.72369665	     -8.57930506	      1.26975949	     77.33707391	      1.34978657	     18.91707448	    -26.78930052	     -7.49999987	     62.34862169	     -2.55869667	      1.85977797	     80.64503725	      1.40752143	     22.00074846	     -9.94905011	     -7.49999987	    -55.14726142	      3.44613417	     -1.16903862	    182.15935463	   -168.05371823	    167.08977307	     66.59002494	     93.80613764	     15.09784862	    -14.78137351	     -6.50330057	     67.36953164	     89.55929590
      3.08474580	    -13.56551840	      0.66036516	     -0.10222229	      0.20753430	      0.84449839	     -0.09038510	     61.70312493	     -7.57721238	      0.86497646	     76.11608547	      1.32847631	     18.35756604	    -27.95035535	     -7.49999987	     60.49949889	     -3.39501308	      1.87662016	     79.57893351	      1.38891440	     21.03119144	     -9.61035910	     -7.49999987	    -55.14304826	      2.96773621	     -1.20004165	    180.92977737	   -167.28007503	    165.31181906	     67.68194789	     93.50363449	     17.46124136	    -16.75370562	     -1.98677659	     60.35352923	     87.59145519
      3.10169490	    -12.56810649	      0.42481641	     -0.45650326	      0.21276935	      0.85233029	     -0.09659132	     59.74997833	     -6.75933145	      0.84676447	     74.58262917	      1.30171244	     17.12703812	    -28.60727451	     -7.49999987	     58.89397773	     -3.80055971	      1.60159875	     78.94652536	      1.37787680	     19.80237368	    -10.12798486	     -7.49999987	    -55.13727264	      2.90254851	     -2.42816963	    181.39736501	   -166.19607591	    163.87878937	     66.74716622	     93.25709805	     17.94718675	    -17.21386439	     -1.76890542	     57.46141739	     87.06866454
      3.11864410	    -11.78295109	      0.38444955	     -0.79459355	      0.21760886	      0.85299565	     -0.09154577	     58.46895374	     -6.00393281	      1.18542475	     73.90505683	      1.28988658	     15.96334006	    -30.11388600	     -7.49999987	     57.39930205	     -4.16860040	      1.35184990	     78.20323426	      1.36490392	     19.14014787	    -10.73441930	     -7.49999987	    -54.12607516	      2.38783031	     -3.19687149	    181.02701732	   -165.13713225	    162.63360482	     65.90664761	     92.97095133	     18.78325939	    -17.49203842	     -0.66716823	     57.06548265	     86.72304359
      3.13559320	    -11.26984884	      0.46583332	     -1.12122644	      0.22747193	      0.86666449	     -0.09264726	     56.70230064	     -5.36745339	      1.71064492	     72.34891070	      1.26272670	     14.66730509	    -31.15964515	     -7.49999987	     55.72354830	     -4.16513159	      1.17917960	     77.00141410	      1.34392820	     18.01604980	    -11.11870419	     -7.49999987	    -52.62956865	      1.70270369	     -3.61377549	    180.88755071	   -163.45244517	    160.02124705	     66.11249438	     91.79709257	     19.07000928	    -17.38978904	     -0.96607216	     57.72538765	     85.72112588
      3.15254240	    -10.12721013	      0.33731048	     -1.45192190	      0.23661734	      0.87890574	     -0.08343003	     53.90850145	     -4.21350621	      2.20447899	     70.54944862	      1.23132016	     13.74772185	    -32.38410360	     -7.49999987	     52.85001435	     -4.51876746	      1.29983815	     75.23449779	      1.31308970	     17.10363193	    -11.59964985	     -7.49999987	    -51.58845228	      0.79351868	     -3.62183289	    180.61202111	   -164.02629063	    155.18762585	     66.28820138	     90.97022618	     19.73319944	    -17.44115540	     -0.97133377	     61.56093777	     85.20085654
      3.16949150	     -9.67459857	      0.69329625	     -1.86035187	      0.23684388	      0.87662638	     -0.09350236	     52.65297271	     -3.87357040	      3.33361262	     69.75298700	      1.21741929	     13.18146578	    -32.88197654	     -7.49999987	     51.36898540	     -4.19855385	      0.90377854	     74.43391908	      1.29911696	     16.63937790	    -12.24571431	     -7.49999987	    -49.29489232	      0.21218652	     -3.11576626	    179.88891949	   -161.34435214	    149.88298018	     68.52566025	     87.73256141	     19.44364632	    -16.91764574	     -2.00451021	     69.04827690	     83.12044547
      3.18644070	     -9.93060262	      0.93236596	     -2.34665312	      0.23027316	      0.88644140	     -0.10109327	     52.30950251	     -3.69786792	      4.48514385	     68.42373109	      1.19421939	     12.35074790	    -32.93858683	     -7.49999987	     50.97807363	     -3.51657118	      0.75528033	     73.31894981	      1.27965708	     15.50434371	    -13.89192048	     -7.49999987	    -46.51410615	     -0.29858749	     -2.76696288	    179.58500989	   -157.23930978	    146.17482650	     72.32443745	     86.63169843	     21.33757803	    -16.44453739	     -3.59293839	     76.18448784	     83.08417894
      3.20338980	     -9.46240258	      0.86198757	     -2.58491806	      0.25809800	      0.91247948	     -0.08525504	     48.93899299	     -3.13059995	      4.91021127	     64.93769843	      1.13337665	     11.18235072	    -33.16154789	     -7.49999987	     47.79752671	     -3.44254496	      1.12465477	     70.01536377	      1.22199862	     13.74566596	    -14.20422504	     -7.49999987	    -44.21327589	     -0.80746455	     -2.82714683	    179.70564766	   -155.24054380	    141.98524576	     75.12609819	     85.65452075	     24.76644809	    -17.70176581	     -3.23603089	     82.37557093	     85.87184946
      3.22033900	     -9.47309165	      0.72551569	     -2.54511392	      0.26444460	      0.92338300	     -0.08071987	     46.31303616	     -2.77466166	      4.51185654	     61.67666608	      1.07646089	      9.83326473	    -33.58799628	     -7.49999987	     45.77083368	     -3.68619011	      1.03505303	     67.31609877	      1.17488756	     11.86068429	    -14.58878049	     -7.49999987	    -41.16318670	     -1.45118358	     -3.06556102	    178.92944204	   -152.22208546	    140.05246125	     78.24683639	     85.50906910	     28.75111380	    -20.34718886	     -3.35769071	     89.53981237	     85.85984104
